<svg xmlns="http://www.w3.org/2000/svg" viewBox="0 0 600 100">
	<view id="bar-chart" viewBox="0 0 100 100" />
	<svg width="100" height="100" viewBox="-50 -50 100 100">
		<g fill="none" stroke="currentColor" stroke-width="5" stroke-linecap="round" stroke-linejoin="round">
			<path d="M -32.5 32.5 v -35 h 21.6 v 35 z m 21.6 0 v -60 h 21.8 v 60 z m 21.8 0 v -25 h 21.6 v 25 z" />
		</g>
	</svg>

	<view id="line-chart" viewBox="100 0 100 100" />
	<svg x="100" width="100" height="100" viewBox="-50 -50 100 100">
		<g fill="none" stroke="currentColor" stroke-width="5" stroke-linecap="round" stroke-linejoin="round">
			<path transform="translate(-27.5 -5)" d="M -10 0 a 10 10 0 0 0 20 0 8 8 0 0 0 -20 0" />
			<path transform="translate(-27.5 -5) rotate(40) translate(10 0)" d="M 0 0 h 15" />
			<path transform="translate(-27.5 -5) rotate(40) translate(35 0)" d="M -10 0 a 10 10 0 0 0 20 0 8 8 0 0 0 -20 0" />
			<path transform="translate(-27.5 -5) rotate(40) translate(35 0) rotate(-90) translate(10 0)" d="M 0 0 h 25" />
			<path transform="translate(-27.5 -5) rotate(40) translate(35 0) rotate(-90) translate(45 0)" d="M -10 0 a 10 10 0 0 0 20 0 8 8 0 0 0 -20 0" />
		</g>
	</svg>

	<view id="candlestick-chart" viewBox="200 0 100 100" />
	<svg x="200" width="100" height="100" viewBox="-50 -50 100 100">
		<g fill="none" stroke="currentColor" stroke-width="5" stroke-linecap="round" stroke-linejoin="round">
			<path transform="translate(-27.5 -20)" d="M 0 0 h 20 v 40 h -20z" />
			<path transform="translate(7.5 -10)" d="M 0 0 h 20 v 20 h -20z" />
			<path d="M -17.5 -30 v 10 m 0 40 v 10" />
			<path d="M 17.5 -30 v 20 m 0 20 v 20" />
		</g>
	</svg>

	<view id="table-chart" viewBox="300 0 100 100" />
	<svg x="300" width="100" height="100" viewBox="-50 -50 100 100">
		<g fill="none" stroke="currentColor" stroke-width="5" stroke-linecap="round" stroke-linejoin="round">
			<path d="M -32.5 -27.5 h 65 v 60 h -65z m 0 20 h 65 m -21.6 0 v 40 m -21.8 0 v -40" />
		</g>
	</svg>

	<view id="pie-chart" viewBox="400 0 100 100" />
	<svg x="400" width="100" height="100" viewBox="-50 -50 100 100">
		<g fill="none" stroke="currentColor" stroke-width="5" stroke-linecap="round" stroke-linejoin="round">
			<path d="M 0 -32.5 a 32.5 32.5 0 0 0 0 65 32.5 32.5 0 0 0 0 -65 v 65 M 0 0 h 32.5" />
		</g>
	</svg>

	<view id="tree-diagram" viewBox="500 0 100 100" />
	<svg x="500" width="100" height="100" viewBox="-50 -50 100 100">
		<g fill="none" stroke="currentColor" stroke-width="5" stroke-linecap="round" stroke-linejoin="round">
			<path transform="translate(-35 -27.5)" d="M 0 0 h 20 v 20 h -20z" />
			<path transform="translate(15 -27.5)" d="M 0 0 h 20 v 20 h -20z" />
			<path transform="translate(15 7.5)" d="M 0 0 h 20 v 20 h -20z" />
			<path d="M -15 -17.5 h 30 m -15 0 v 35 h 15" />
		</g>
	</svg>
</svg>