
<svg xmlns="http://www.w3.org/2000/svg" viewBox="-0.5 -0.5 501 111">
    <title>Henry III Ahnentafel</title>
    <description>Explore the ancestry of Henry III one generation at a time. Enter the "Escape" key to zoom out.</description>
    <script>
    function handleKeydown(e) {
        if (e.key === "Escape") {
        e.preventDefault();
        location.href = "";
        }
    }
    document.querySelector("svg").addEventListener("keydown", handleKeydown);
    </script>
    <defs>
        <rect id="c" fill="none" stroke="currentColor" x="-25" y="-10" width="50" height="20" rx="10" />
        <circle id="b" r="1.5" />
        <mask id="a">
            <use href="#b" fill="white" />
            <path fill="none" stroke="black" stroke-width="0.25" stroke-linecap="round" stroke-linejoin="round" d="M 0 -0.5 0 0.5 -0.5 0 0 0.5 0.5 0" />
        </mask>
        <use id="p" mask="url(#a)" href="#b" fill="currentColor" />
        <use id="f" transform="rotate(135)" href="#p" />
        <use id="m" transform="rotate(-135)" href="#p" />
        <path id="l" fill="currentColor" stroke="currentColor" stroke-width="1" stroke-linecap="round" stroke-linejoin="round" d="M -3 0 C -3 -2 -1 -5 0 -5 C 1 -5 3 -2 3 0 C 3 2 1 5 0 5 C -1 5 -3 2 -3 0 Z" />
    </defs>
    <path fill="none" stroke="currentColor" stroke-linecap="round" stroke-linejoin="round" stroke-dasharray="0.5 2" d="M 25 20 L 25 40 L 30 40 M 85 20 L 85 40 L 80 40 M 155 20 L 155 40 L 160 40 M 215 20 L 215 40 L 210 40 M 285 20 L 285 40 L 290 40 M 345 20 L 345 40 L 340 40 M 415 20 L 415 40 L 420 40 M 475 20 L 475 40 L 470 40 M 55 50 L 55 70 L 95 70 M 185 50 L 185 70 L 145 70 M 315 50 L 315 70 L 355 70 M 445 50 L 445 70 L 405 70 M 120 80 L 120 100 L 225 100 M 380 80 L 380 100 L 275 100" />

    <g fill="currentColor" text-anchor="middle" font-size="6" font-family="sans-serif">
        <view id="v-0-0-0" viewBox="224.5 89.5 51 21" />
        <g transform="translate(250 100)">
            <use href="#c" />
            <a href="#v-0-0-0"><text y="1.8">Henry III</text></a>
            <a aria-label="Father" href="#v-1-0-0"><use href="#f" x="-20" /></a>
            <a aria-label="Mother" href="#v-2-0-0"><use href="#m" x="20" /></a>
            <a aria-label="Zoom out" href="#"><use href="#b" y="6.5" /></a>
        </g>

        <view id="v-1-0-0" viewBox="94.5 59.5 51 21" />
        <g transform="translate(120 70)">
            <use href="#c" />
            <a href="#v-1-0-0"><text y="1.8">Henry II</text></a>
            <a aria-label="Father" href="#v-1-1-0"><use href="#f" x="-20" /></a>
            <a aria-label="Progeny" href="#v-0-0-0"><use href="#p" y="6.5" /></a>
            <a aria-label="Mother" href="#v-1-2-0"><use href="#m" x="20" /></a>
        </g>
        <view id="v-2-0-0" viewBox="354.5 59.5 51 21" />
        <g transform="translate(380 70)">
            <use href="#c" />
            <a href="#v-2-0-0"><text y="1.8">Catherine</text></a>
            <a aria-label="Father" href="#v-2-1-0"><use href="#f" x="-20" /></a>
            <a aria-label="Progeny" href="#v-0-0-0"><use href="#p" y="6.5" /></a>
            <a aria-label="Mother" href="#v-2-2-0"><use href="#m" x="20" /></a>
        </g>

        <view id="v-1-1-0" viewBox="29.5 29.5 51 21" />
        <g transform="translate(55 40)">
            <use href="#c" />
            <a href="#v-1-1-0"><text y="1.8">Francis I</text></a>
            <a aria-label="Father" href="#v-1-1-1"><use href="#f" x="-20" /></a>
            <a aria-label="Progeny" href="#v-1-0-0"><use href="#p" y="6.5" /></a>
            <a aria-label="Mother" href="#v-1-1-2"><use href="#m" x="20" /></a>
        </g>
        <view id="v-1-2-0" viewBox="159.5 29.5 51 21" />
        <g transform="translate(185 40)">
            <use href="#c" />
            <a href="#v-1-2-0"><text y="1.8">Claude</text></a>
            <a aria-label="Father" href="#v-1-2-1"><use href="#f" x="-20" /></a>
            <a aria-label="Progeny" href="#v-1-0-0"><use href="#p" y="6.5" /></a>
            <a aria-label="Mother" href="#v-1-2-2"><use href="#m" x="20" /></a>
        </g>

        <view id="v-2-1-0" viewBox="289.5 29.5 51 21" />
        <g transform="translate(315 40)">
            <use href="#c" />
            <a href="#v-2-1-0"><text y="1.8">Lorenzo</text></a>
            <a aria-label="Father" href="#v-2-1-1"><use href="#f" x="-20" /></a>
            <a aria-label="Progeny" href="#v-2-0-0"><use href="#p" y="6.5" /></a>
            <a aria-label="Mother" href="#v-2-1-2"><use href="#m" x="20" /></a>
        </g>
        <view id="v-2-2-0" viewBox="419.5 29.5 51 21" />
        <g transform="translate(445 40)">
            <use href="#c" />
            <a href="#v-2-2-0"><text y="1.8">Madeleine</text></a>
            <a aria-label="Father" href="#v-2-2-1"><use href="#f" x="-20" /></a>
            <a aria-label="Progeny" href="#v-2-0-0"><use href="#p" y="6.5" /></a>
            <a aria-label="Mother" href="#v-2-2-2"><use href="#m" x="20" /></a>
        </g>

        <view id="v-1-1-1" viewBox="-0.5 -0.5 51 21" />
        <g transform="translate(25 10)">
            <use href="#c" />
            <a href="#v-1-1-1"><text y="1.8">Charles</text></a>
            <a aria-label="Progeny" href="#v-1-1-0"><use href="#p" y="6.5" /></a>
        </g>
        <view id="v-1-1-2" viewBox="59.5 -0.5 51 21" />
        <g transform="translate(85 10)">
            <use href="#c" />
            <a href="#v-1-1-2"><text y="1.8">Louise</text></a>
            <a aria-label="Progeny" href="#v-1-1-0"><use href="#p" y="6.5" /></a>
        </g>

        <view id="v-1-2-1" viewBox="129.5 -0.5 51 21" />
        <g transform="translate(155 10)">
            <use href="#c" />
            <a href="#v-1-2-1"><text y="1.8">Louis XII</text></a>
            <a aria-label="Progeny" href="#v-1-2-0"><use href="#p" y="6.5" /></a>
        </g>
        <view id="v-1-2-2" viewBox="189.5 -0.5 51 21" />
        <g transform="translate(215 10)">
            <use href="#c" />
            <a href="#v-1-2-2"><text y="1.8">Anne</text></a>
            <a aria-label="Progeny" href="#v-1-2-0"><use href="#p" y="6.5" /></a>
        </g>

        <view id="v-2-1-1" viewBox="259.5 -0.5 51 21" />
        <g transform="translate(285 10)">
            <use href="#c" />
            <a href="#v-2-1-1"><text y="1.8">Piero</text></a>
            <a aria-label="Progeny" href="#v-2-1-0"><use href="#p" y="6.5" /></a>
        </g>
        <view id="v-2-1-2" viewBox="319.5 -0.5 51 21" />
        <g transform="translate(345 10)">
            <use href="#c" />
            <a href="#v-2-1-2"><text y="1.8">Alfonsina</text></a>
            <a aria-label="Progeny" href="#v-2-1-0"><use href="#p" y="6.5" /></a>
        </g>

        <view id="v-2-2-1" viewBox="389.5 -0.5 51 21" />
        <g transform="translate(415 10)">
            <use href="#c" />
            <a href="#v-2-2-1"><text y="1.8">John III</text></a>
            <a aria-label="Progeny" href="#v-2-2-0"><use href="#p" y="6.5" /></a>
        </g>
        <view id="v-2-2-2" viewBox="449.5 -0.5 51 21" />
        <g transform="translate(475 10)">
            <use href="#c" />
            <a href="#v-2-2-2"><text y="1.8">Jeanne</text></a>
            <a aria-label="Progeny" href="#v-2-2-0"><use href="#p" y="6.5" /></a>
        </g>
    </g>

    <g transform="translate(250.5 55.5)">
        <use transform="translate(-5 -5) rotate(-20) scale(0.7)" href="#l" />
        <use transform="translate(5 -6) rotate(25) scale(0.9)" href="#l" />
        <use transform="scale(0.5)" href="#l" />
        <use transform="translate(-1 -10) rotate(-10) scale(0.6)" href="#l" />
        <use transform="translate(9 1) rotate(80) scale(0.7)" href="#l" />
        <use transform="translate(-8 1) rotate(-80) scale(0.7)" href="#l" />
        <use transform="translate(-9 7) rotate(80) scale(0.5)" href="#l" />
        <use transform="translate(8 6) rotate(-70) scale(0.5)" href="#l" />
        <path fill="currentColor" stroke="currentColor" stroke-width="1" stroke-linecap="round" stroke-linejoin="round" d="M 0 4.5 Q -2 3 -3.5 2.5 Q -2 4 -2 5 Q -2 6 -5 6 Q -2 7 -1.5 8 Q -2 10 -4 12 Q 0 11 4 12 Q 1 10 1 8 Q 2 6 4 5.5 Q 2 5.5 1 5 Q 2 3 4 2 Q 3 2 0 4.5 Z" />
    </g>
</svg>