<svg xmlns="http://www.w3.org/2000/svg" viewBox="0 0 1 1">
    <style>
        svg:not(:has(> svg:target)) > svg:first-of-type {
            display: initial;	
        }
        svg > svg:not(:target) {
            display: none;
        }
    </style>
    <svg id="filter-image" viewBox="-0.5 -0.5 16 16">
        <g stroke-linecap="round" stroke-linejoin="round">
            <path fill="none" stroke="currentColor" d="M 0 3 0 15 12 15 M 7 0 2.5 0 2.5 4.5 M 10.5 0 15 0 15 4.5 M 15 8 15 12.5 10.5 12.5 M 7 12.5 2.5 12.5 2.5 8" />
            <g transform="translate(8.75 6.25)" fill="currentColor" stroke="currentColor">
                <circle cx="3" cy="-3" r="0.5" />
                <path d="M -2 4 1 0 4 4 Z M -4 4 -1.75 1 0.5 4Z" />
            </g>
        </g>
        </svg>
    <svg id="filter-1" viewBox="-0.5 -0.5 16 16">
        <g fill="none" stroke="currentColor" stroke-linecap="round" stroke-linejoin="round">
            <path d="M 0 3 0 15 12 15 M 2.5 0 15 0 15 12.5 2.5 12.5 Z" />
            <path transform="translate(8.75 6.25)" d="M 1 3 1 -3 -1 -3" />
        </g>
    </svg>
    <svg id="filter-2" viewBox="-0.5 -0.5 16 16">
        <g fill="none" stroke="currentColor" stroke-linecap="round" stroke-linejoin="round">
            <path d="M 0 3 0 15 12 15 M 2.5 0 15 0 15 12.5 2.5 12.5 Z" />
            <path transform="translate(8.75 6.25)" d="M 2 3 -2 3 -2 1 A 1 1 0 0 1 -1 0 L 1 0 A 1 1 0 0 0 2 -1 L 2 -2 A 1 1 0 0 0 1 -3 L -2 -3" />
        </g>
    </svg>
    <svg id="filter-3" viewBox="-0.5 -0.5 16 16">
        <g fill="none" stroke="currentColor" stroke-linecap="round" stroke-linejoin="round">
            <path d="M 0 3 0 15 12 15 M 2.5 0 15 0 15 12.5 2.5 12.5 Z" />
            <path transform="translate(8.75 6.25)" d="M -2 3 1 3 A 1 1 0 0 0 2 2 L 2 1 A 1 1 0 0 0 1 0 L 0 0 1 0 A 1 1 0 0 0 2 -1 L 2 -2 A 1 1 0 0 0 1 -3 L -2 -3" />
        </g>
    </svg>
    <svg id="filter-4" viewBox="-0.5 -0.5 16 16">
        <g fill="none" stroke="currentColor" stroke-linecap="round" stroke-linejoin="round">
            <path d="M 0 3 0 15 12 15 M 2.5 0 15 0 15 12.5 2.5 12.5 Z" />
            <path transform="translate(8.75 6.25)" d="M 2 3 2 -3 2 0 -2 0 -2 -3" />
        </g>
    </svg>
    <svg id="filter-5" viewBox="-0.5 -0.5 16 16">
        <g fill="none" stroke="currentColor" stroke-linecap="round" stroke-linejoin="round">
            <path d="M 0 3 0 15 12 15 M 2.5 0 15 0 15 12.5 2.5 12.5 Z" />
            <path transform="translate(8.75 6.25)" d="M -2 3 1 3 A 1 1 0 0 0 2 2 L 2 1 A 1 1 0 0 0 1 0 L -2 0 -2 -3 2 -3" />
        </g>
    </svg>
    <svg id="filter-6" viewBox="-0.5 -0.5 16 16">
        <g fill="none" stroke="currentColor" stroke-linecap="round" stroke-linejoin="round">
            <path d="M 0 3 0 15 12 15 M 2.5 0 15 0 15 12.5 2.5 12.5 Z" />
            <path transform="translate(8.75 6.25)" d="M 1 -3 -1 -3 A 1 1 0 0 0 -2 -2 L -2 2 A 1 1 0 0 0 -1 3 L 1 3 A 1 1 0 0 0 2 2 L 2 1 A 1 1 0 0 0 1 0 L -2 0" />
        </g>
    </svg>
    <svg id="filter-7" viewBox="-0.5 -0.5 16 16">
        <g fill="none" stroke="currentColor" stroke-linecap="round" stroke-linejoin="round">
            <path d="M 0 3 0 15 12 15 M 2.5 0 15 0 15 12.5 2.5 12.5 Z" />
            <path transform="translate(8.75 6.25)" d="M -1 3 2 -3 -2 -3" />
        </g>
    </svg>
    <svg id="filter-8" viewBox="-0.5 -0.5 16 16">
        <g fill="none" stroke="currentColor" stroke-linecap="round" stroke-linejoin="round">
            <path d="M 0 3 0 15 12 15 M 2.5 0 15 0 15 12.5 2.5 12.5 Z" />
            <path transform="translate(8.75 6.25)" d="M -1 0 A 1 1 0 0 0 -2 1 L -2 2 A 1 1 0 0 0 -1 3 L 1 3 A 1 1 0 0 0 2 2 L 2 1 A 1 1 0 0 0 1 0 L -1 0 A 1 1 0 0 1 -2 -1 L -2 -2 A 1 1 0 0 1 -1 -3 L 1 -3 A 1 1 0 0 1 2 -2 L 2 -1 A 1 1 0 0 1 1 0" />
        </g>
    </svg>
    <svg id="filter-9" viewBox="-0.5 -0.5 16 16">
        <g fill="none" stroke="currentColor" stroke-linecap="round" stroke-linejoin="round">
            <path d="M 0 3 0 15 12 15 M 2.5 0 15 0 15 12.5 2.5 12.5 Z" />
            <path transform="translate(8.75 6.25)" d="M -1 3 L 1 3 A 1 1 0 0 0 2 2 L 2 -2 A 1 1 0 0 0 1 -3 L -1 -3 A 1 1 0 0 0 -2 -2 L -2 -1 A 1 1 0 0 0 -1 0 L 2 0" /> 
        </g>
    </svg>
</svg>